<svg xmlns="http://www.w3.org/2000/svg" width="512" height="512" fill="none" viewBox="0 0 432 432">
  <circle cx="216" cy="216" r="216" fill="#2e3943"/>
  <path fill="#292832" d="M398.073 216c0 97.433-81.517 176.419-182.073 176.419-100.556 0-182.073-78.986-182.073-176.419S115.444 39.581 216 39.581c100.556 0 182.073 78.986 182.073 176.419Z"/>
  <path fill="#114cd4" fill-rule="evenodd" d="M216 359.34c81.702 0 147.934-64.175 147.934-143.34S297.702 72.66 216 72.66 68.065 136.835 68.065 216 134.298 359.34 216 359.34zm0 33.079c100.556 0 182.073-78.986 182.073-176.419S316.556 39.581 216 39.581C115.444 39.581 33.927 118.567 33.927 216S115.444 392.419 216 392.419z" clip-rule="evenodd"/>
  <path fill="#cccccc" d="M129.384 309.636 129.384 122.364 302.616 122.364 302.616 307.908 286.416 307.908 286.416 137.484 145.152 137.484 145.152 309.636 129.384 309.636ZM206.496 251.1 206.496 144.18 220.536 144.18 220.536 252.828Q220.536 256.716 221.292 259.308 222.048 261.9 223.776 262.764 226.8 263.628 231.984 263.628L239.436 263.628 247.752 263.628Q250.56 263.628 253.584 263.52 256.608 263.412 257.904 263.196 259.2 262.764 260.82 261.792 262.44 260.82 263.088 259.308 263.52 257.796 263.952 253.908 264.384 250.02 264.6 245.052 266.976 246.996 270.432 248.616 273.888 250.236 277.344 251.316 276.912 256.284 276.156 261.36 275.4 266.436 273.888 268.812 272.592 271.188 270.324 272.7 268.056 274.212 264.816 274.86 262.008 275.508 257.472 275.94 252.936 276.372 248.832 276.372L243.216 276.372 235.548 276.372 229.824 276.372Q225.72 276.372 221.076 275.508 216.432 274.644 213.192 272.916 209.736 270.972 208.116 266.76 206.496 262.548 206.496 251.1ZM136.944 299.484 136.944 284.148 295.488 284.148 295.488 299.484 136.944 299.484ZM259.632 153.036 268.704 164.7Q258.336 167.076 245.268 169.128 232.2 171.18 217.62 172.584 203.04 173.988 188.244 174.96 173.448 175.932 159.84 176.364 159.624 173.988 158.544 170.64 157.464 167.292 156.168 164.7 169.56 164.052 183.924 162.972 198.288 161.892 212.328 160.38 226.368 158.868 238.572 157.032 250.776 155.196 259.632 153.036ZM172.368 234.468 172.368 221.508 255.312 221.508 255.312 234.468 172.368 234.468ZM165.24 246.78 165.24 185.22 178.632 185.22 178.632 246.78 165.24 246.78ZM249.264 241.38 249.264 185.22 263.088 185.22 263.088 241.38 249.264 241.38Z"/>
</svg>
